<mxfile host="65bd71144e">
    <diagram id="nljEmskvn89XFRaa3V2e" name="Page-1">
        <mxGraphModel dx="722" dy="1147" grid="1" gridSize="10" guides="1" tooltips="1" connect="1" arrows="1" fold="1" page="1" pageScale="1" pageWidth="1100" pageHeight="850" math="0" shadow="0">
            <root>
                <mxCell id="0"/>
                <mxCell id="1" parent="0"/>
                <mxCell id="2" value="HorarioFormato" style="swimlane;fontStyle=1;align=center;verticalAlign=middle;childLayout=stackLayout;horizontal=1;startSize=29;horizontalStack=0;resizeParent=1;resizeParentMax=0;resizeLast=0;collapsible=0;marginBottom=0;html=1;" vertex="1" parent="1">
                    <mxGeometry x="360" y="120" width="240" height="239" as="geometry"/>
                </mxCell>
                <mxCell id="3" value="+ nombreAlumno: String[1]&lt;br&gt;+ codigo: String[1]&lt;br&gt;+ materia: String[1]&lt;br&gt;+ paralelo: String[1]&lt;br&gt;+ aula: String[1]&lt;br&gt;+ credito: String[1]&lt;br&gt;+ observacion: String[1]&lt;br&gt;+ horaLunes: ArrayList&amp;lt;Integer&amp;gt;[1]&lt;br&gt;+ horaMartes: ArrayList&amp;lt;Integer&amp;gt;[1]&lt;br&gt;+ horaMiercoles: ArrayList&amp;lt;Integer&amp;gt;[1]&lt;br&gt;+ horaJueves: ArrayList&amp;lt;Integer&amp;gt;[1]&lt;br&gt;+ horaViernes: ArrayList&amp;lt;Integer&amp;gt;[1]&lt;br&gt;+ horaSabado: ArrayList&amp;lt;Integer&amp;gt;[1]" style="text;html=1;strokeColor=none;fillColor=none;align=left;verticalAlign=middle;spacingLeft=4;spacingRight=4;overflow=hidden;rotatable=0;points=[[0,0.5],[1,0.5]];portConstraint=eastwest;" vertex="1" parent="2">
                    <mxGeometry y="29" width="240" height="210" as="geometry"/>
                </mxCell>
                <mxCell id="5" value="HorarioBase" style="swimlane;fontStyle=1;align=center;verticalAlign=middle;childLayout=stackLayout;horizontal=1;startSize=29;horizontalStack=0;resizeParent=1;resizeParentMax=0;resizeLast=0;collapsible=0;marginBottom=0;html=1;strokeColor=default;" vertex="1" parent="1">
                    <mxGeometry x="360" y="390" width="240" height="70" as="geometry"/>
                </mxCell>
                <mxCell id="6" value="+ asignaturas: HashSet&amp;lt;String&amp;gt;[1]&lt;br&gt;+ alumnos: HashSet&amp;lt;String&amp;gt;[1]" style="text;html=1;strokeColor=none;fillColor=none;align=center;verticalAlign=middle;spacingLeft=4;spacingRight=4;overflow=hidden;rotatable=0;points=[[0,0.5],[1,0.5]];portConstraint=eastwest;" vertex="1" parent="5">
                    <mxGeometry y="29" width="240" height="41" as="geometry"/>
                </mxCell>
                <mxCell id="8" value="Horario" style="swimlane;fontStyle=1;align=center;verticalAlign=middle;childLayout=stackLayout;horizontal=1;startSize=29;horizontalStack=0;resizeParent=1;resizeParentMax=0;resizeLast=0;collapsible=0;marginBottom=0;html=1;strokeColor=default;" vertex="1" parent="1">
                    <mxGeometry x="780" y="530.5" width="140" height="54" as="geometry"/>
                </mxCell>
                <mxCell id="9" value="+ showHorario ()" style="text;html=1;strokeColor=none;fillColor=none;align=center;verticalAlign=middle;spacingLeft=4;spacingRight=4;overflow=hidden;rotatable=0;points=[[0,0.5],[1,0.5]];portConstraint=eastwest;" vertex="1" parent="8">
                    <mxGeometry y="29" width="140" height="25" as="geometry"/>
                </mxCell>
                <mxCell id="11" value="&amp;lt;&amp;lt;Interface&amp;gt;&amp;gt;&lt;br&gt;&lt;b&gt;GestionArchivoHorario&lt;/b&gt;" style="swimlane;fontStyle=0;align=center;verticalAlign=top;childLayout=stackLayout;horizontal=1;startSize=40;horizontalStack=0;resizeParent=1;resizeParentMax=0;resizeLast=0;collapsible=0;marginBottom=0;html=1;strokeColor=default;" vertex="1" parent="1">
                    <mxGeometry x="770" y="110" width="310" height="110" as="geometry"/>
                </mxCell>
                <mxCell id="12" value="+ readHorarioAlumnos (in directorioHorario: String)&lt;br&gt;+ showAsignatura ()&lt;br&gt;+ showAlumno ()" style="text;html=1;strokeColor=none;fillColor=none;align=left;verticalAlign=middle;spacingLeft=4;spacingRight=4;overflow=hidden;rotatable=0;points=[[0,0.5],[1,0.5]];portConstraint=eastwest;" vertex="1" parent="11">
                    <mxGeometry y="40" width="310" height="70" as="geometry"/>
                </mxCell>
                <mxCell id="13" value="App" style="swimlane;fontStyle=1;align=center;verticalAlign=middle;childLayout=stackLayout;horizontal=1;startSize=20;horizontalStack=0;resizeParent=1;resizeParentMax=0;resizeLast=0;collapsible=0;marginBottom=0;html=1;strokeColor=default;" vertex="1" parent="1">
                    <mxGeometry x="190" y="510" width="190" height="95" as="geometry"/>
                </mxCell>
                <mxCell id="14" value="- horarioRutaDirectorio: String[1]&lt;br&gt;~ sc: Scanner[1]" style="text;html=1;strokeColor=none;fillColor=none;align=left;verticalAlign=middle;spacingLeft=4;spacingRight=4;overflow=hidden;rotatable=0;points=[[0,0.5],[1,0.5]];portConstraint=eastwest;" vertex="1" parent="13">
                    <mxGeometry y="20" width="190" height="50" as="geometry"/>
                </mxCell>
                <mxCell id="15" value="+ main(in args: String)" style="text;html=1;strokeColor=none;fillColor=none;align=left;verticalAlign=middle;spacingLeft=4;spacingRight=4;overflow=hidden;rotatable=0;points=[[0,0.5],[1,0.5]];portConstraint=eastwest;" vertex="1" parent="13">
                    <mxGeometry y="70" width="190" height="25" as="geometry"/>
                </mxCell>
                <mxCell id="16" value="" style="endArrow=none;html=1;rounded=0;align=center;verticalAlign=top;endFill=0;labelBackgroundColor=none;exitX=1;exitY=0.5;exitDx=0;exitDy=0;entryX=0;entryY=0.5;entryDx=0;entryDy=0;" edge="1" parent="1" source="14" target="8">
                    <mxGeometry relative="1" as="geometry">
                        <mxPoint x="470" y="560" as="sourcePoint"/>
                        <mxPoint x="630" y="560" as="targetPoint"/>
                    </mxGeometry>
                </mxCell>
                <mxCell id="17" value="0" style="resizable=0;html=1;align=left;verticalAlign=bottom;labelBackgroundColor=none;strokeColor=default;" connectable="0" vertex="1" parent="16">
                    <mxGeometry x="-1" relative="1" as="geometry"/>
                </mxCell>
                <mxCell id="19" value="horario" style="resizable=0;html=1;align=right;verticalAlign=bottom;labelBackgroundColor=none;strokeColor=default;" connectable="0" vertex="1" parent="16">
                    <mxGeometry x="1" relative="1" as="geometry">
                        <mxPoint x="-40" as="offset"/>
                    </mxGeometry>
                </mxCell>
                <mxCell id="20" value="1" style="text;html=1;align=center;verticalAlign=middle;resizable=0;points=[];autosize=1;strokeColor=none;fillColor=none;" vertex="1" parent="1">
                    <mxGeometry x="745" y="555" width="30" height="30" as="geometry"/>
                </mxCell>
                <mxCell id="21" value="" style="endArrow=block;startArrow=none;endFill=0;startFill=0;endSize=8;html=1;verticalAlign=bottom;dashed=1;labelBackgroundColor=none;entryX=0.286;entryY=1.011;entryDx=0;entryDy=0;entryPerimeter=0;" edge="1" parent="1" target="12">
                    <mxGeometry width="160" relative="1" as="geometry">
                        <mxPoint x="840" y="530" as="sourcePoint"/>
                        <mxPoint x="670" y="600" as="targetPoint"/>
                    </mxGeometry>
                </mxCell>
                <mxCell id="23" value="" style="html=1;verticalAlign=bottom;labelBackgroundColor=none;endArrow=block;endFill=1;endSize=6;align=left;entryX=1;entryY=0.5;entryDx=0;entryDy=0;" edge="1" parent="1" target="6">
                    <mxGeometry x="0.3025" y="-122" relative="1" as="geometry">
                        <mxPoint x="800" y="530" as="sourcePoint"/>
                        <mxPoint x="690" y="490" as="targetPoint"/>
                        <mxPoint as="offset"/>
                    </mxGeometry>
                </mxCell>
                <mxCell id="24" value="&amp;lt;&amp;lt;DataType&amp;gt;&amp;gt;&lt;br&gt;&lt;br&gt;&lt;b&gt;+HashSet&amp;lt;String&amp;gt;&lt;/b&gt;" style="html=1;align=center;verticalAlign=middle;dashed=0;strokeColor=default;" vertex="1" parent="1">
                    <mxGeometry x="90" y="400" width="170" height="50" as="geometry"/>
                </mxCell>
                <mxCell id="25" value="&amp;lt;&amp;lt;DataType&amp;gt;&amp;gt;&lt;br&gt;&lt;br&gt;&lt;b&gt;ArrayList&amp;lt;Integer&amp;gt;&lt;/b&gt;" style="html=1;align=center;verticalAlign=middle;dashed=0;strokeColor=default;" vertex="1" parent="1">
                    <mxGeometry x="90" y="310" width="170" height="50" as="geometry"/>
                </mxCell>
                <mxCell id="26" value="&amp;lt;&amp;lt;DataType&amp;gt;&amp;gt;&lt;br&gt;&lt;br&gt;&lt;b&gt;+ String&lt;/b&gt;" style="html=1;align=center;verticalAlign=middle;dashed=0;strokeColor=default;" vertex="1" parent="1">
                    <mxGeometry x="90" y="230" width="170" height="50" as="geometry"/>
                </mxCell>
                <mxCell id="27" value="&amp;lt;&amp;lt;DataType&amp;gt;&amp;gt;&lt;br&gt;&lt;br&gt;&lt;b&gt;+ Scanner&lt;/b&gt;" style="html=1;align=center;verticalAlign=middle;dashed=0;strokeColor=default;" vertex="1" parent="1">
                    <mxGeometry x="90" y="160" width="170" height="50" as="geometry"/>
                </mxCell>
                <mxCell id="28" value="&amp;lt;&amp;lt;PrimitiveTypes&amp;gt;&amp;gt;&lt;br&gt;&lt;br&gt;&lt;b&gt;+ void ()&lt;/b&gt;&lt;span style=&quot;color: rgba(0, 0, 0, 0); font-family: monospace; font-size: 0px; text-align: start;&quot;&gt;%3CmxGraphModel%3E%3Croot%3E%3CmxCell%20id%3D%220%22%2F%3E%3CmxCell%20id%3D%221%22%20parent%3D%220%22%2F%3E%3CmxCell%20id%3D%222%22%20value%3D%22%26amp%3Blt%3B%26amp%3Blt%3BDataType%26amp%3Bgt%3B%26amp%3Bgt%3B%26lt%3Bbr%26gt%3B%26lt%3Bbr%26gt%3B%26lt%3Bb%26gt%3B%2B%20Scanner%26lt%3B%2Fb%26gt%3B%22%20style%3D%22html%3D1%3Balign%3Dcenter%3BverticalAlign%3Dmiddle%3Bdashed%3D0%3BstrokeColor%3Ddefault%3B%22%20vertex%3D%221%22%20parent%3D%221%22%3E%3CmxGeometry%20x%3D%2290%22%20y%3D%22160%22%20width%3D%22170%22%20height%3D%2250%22%20as%3D%22geometry%22%2F%3E%3C%2FmxCell%3E%3C%2Froot%3E%3C%2FmxGraphModel%3E&lt;/span&gt;" style="html=1;align=center;verticalAlign=middle;dashed=0;strokeColor=default;" vertex="1" parent="1">
                    <mxGeometry x="90" y="90" width="170" height="50" as="geometry"/>
                </mxCell>
                <mxCell id="29" value="&amp;lt;&amp;lt;PrimitiveTypes&amp;gt;&amp;gt;&lt;br&gt;&lt;br&gt;&lt;b&gt;+ Integer&lt;/b&gt;&lt;span style=&quot;color: rgba(0, 0, 0, 0); font-family: monospace; font-size: 0px; text-align: start;&quot;&gt;%3CmxGraphModel%3E%3Croot%3E%3CmxCell%20id%3D%220%22%2F%3E%3CmxCell%20id%3D%221%22%20parent%3D%220%22%2F%3E%3CmxCell%20id%3D%222%22%20value%3D%22%26amp%3Blt%3B%26amp%3Blt%3BDataType%26amp%3Bgt%3B%26amp%3Bgt%3B%26lt%3Bbr%26gt%3B%26lt%3Bbr%26gt%3B%26lt%3Bb%26gt%3B%2B%20Scanner%26lt%3B%2Fb%26gt%3B%22%20style%3D%22html%3D1%3Balign%3Dcenter%3BverticalAlign%3Dmiddle%3Bdashed%3D0%3BstrokeColor%3Ddefault%3B%22%20vertex%3D%221%22%20parent%3D%221%22%3E%3CmxGeometry%20x%3D%2290%22%20y%3D%22160%22%20width%3D%22170%22%20height%3D%2250%22%20as%3D%22geometry%22%2F%3E%3C%2FmxCell%3E%3C%2Froot%3E%3C%2FmxGraphModel%3E&lt;/span&gt;" style="html=1;align=center;verticalAlign=middle;dashed=0;strokeColor=default;" vertex="1" parent="1">
                    <mxGeometry x="90" y="20" width="170" height="50" as="geometry"/>
                </mxCell>
                <mxCell id="31" value="+ Utilitario" style="fontStyle=1;strokeColor=default;" vertex="1" parent="1">
                    <mxGeometry x="105" y="-50" width="140" height="30" as="geometry"/>
                </mxCell>
            </root>
        </mxGraphModel>
    </diagram>
</mxfile>